<svg width="12" height="12" viewBox="0 0 12 12" fill="none" xmlns="http://www.w3.org/2000/svg">
<path d="M6 12C9.31371 12 12 9.31371 12 6C12 2.68629 9.31371 0 6 0C2.68629 0 0 2.68629 0 6C0 9.31371 2.68629 12 6 12Z" fill="#DB2222"/>
<path d="M6.46897 6.12845C7.54166 5.57035 8.14309 5.03039 8.14309 4.11383C8.14309 2.8615 7.10181 2.35785 5.98872 2.35785C5.35588 2.35785 4.75894 2.51666 4.26074 2.79798L4.46271 3.78714C4.74996 3.60564 5.33793 3.41507 5.85856 3.41507C6.41511 3.41507 6.90882 3.61472 6.90882 4.23181C6.90882 4.91696 6.02463 5.34348 5.33793 5.71554L5.42769 6.9951H6.36574L6.46897 6.12845Z" fill="white"/>
<path fill-rule="evenodd" clip-rule="evenodd" d="M4.26004 2.79797C4.75823 2.51665 5.35517 2.35784 5.98802 2.35784C7.10111 2.35784 8.14238 2.8615 8.14238 4.11383C8.14238 5.03039 7.54096 5.57034 6.46826 6.12844L6.36503 6.99509H5.42698L5.33722 5.71554C5.38234 5.69109 5.42832 5.66641 5.47484 5.64143C6.1363 5.2863 6.90811 4.87193 6.90811 4.2318C6.90811 3.61471 6.4144 3.41506 5.85786 3.41506C5.39115 3.41506 4.87034 3.5682 4.56054 3.73066C4.52474 3.74943 4.49176 3.76833 4.46201 3.78713L4.26004 2.79797ZM6.56863 6.19762C7.08472 5.92559 7.4997 5.65106 7.78811 5.32729C8.08945 4.989 8.25023 4.59959 8.25023 4.11383C8.25023 3.45299 7.97319 2.98102 7.54487 2.67816C7.12145 2.37876 6.55859 2.25 5.98802 2.25C5.33732 2.25 4.72201 2.41326 4.20701 2.70407L4.13867 2.74266L4.38759 3.96172L4.51961 3.8783C4.78895 3.70812 5.3568 3.52291 5.85786 3.52291C6.12627 3.52291 6.36448 3.57156 6.53239 3.6821C6.69322 3.78797 6.80027 3.95724 6.80027 4.2318C6.80027 4.52339 6.61276 4.77346 6.31395 5.00596C6.05521 5.20729 5.73295 5.38037 5.42468 5.54593C5.37799 5.57101 5.33162 5.59591 5.28584 5.62072L5.22478 5.6538L5.32644 7.10293H6.46079L6.56863 6.19762Z" fill="white"/>
<circle cx="5.98196" cy="8.86764" r="0.882352" fill="white"/>
</svg>
