<svg width="64" height="64" viewBox="0 0 64 64" fill="none" xmlns="http://www.w3.org/2000/svg">
<path d="M32 53C43.598 53 53 43.598 53 32C53 20.402 43.598 11 32 11C20.402 11 11 20.402 11 32C11 43.598 20.402 53 32 53Z" fill="#DB2222"/>
<path fill-rule="evenodd" clip-rule="evenodd" d="M31.332 26.643C31.805 26.823 32.661 27.499 33.246 28.489C37.57 35.65 36.602 34.119 40.362 40.312C40.678 40.83 45.767 42.361 45.767 42.361L45.069 40.942L44.641 40.064C44.078 38.938 44.708 38.398 45.361 38.014C45.361 38.014 42.884 36.326 42.771 36.236C42.659 36.146 42.569 36.033 42.434 35.898C43.019 35.718 43.875 35.38 44.168 35.268C44.438 35.132 46.6 34.074 46.6 34.074C45.181 33.016 46.172 31.822 46.803 30.922L48.153 29.03L45.091 28.962C43.582 28.805 43.245 28.287 43.245 27.296L40.182 29.48C38.763 30.449 37.818 29.48 37.975 27.746L38.471 23.671C37.03 24.504 34.778 21.734 34.305 19.077C33.675 19.077 33.945 24.121 31.017 23.535C31.085 23.625 31.333 26.148 31.333 26.643H31.332ZM38.02 42.699C36.49 43.599 35.408 42.339 34.8 41.347L33.314 38.96L28.585 38.938C28.585 38.938 27.617 42.586 22.956 42.586C18.295 42.563 17.462 38.623 17.462 36.754C17.462 34.884 17.484 29.007 17.484 29.007C17.484 29.007 17.484 27.206 19.376 27.206C21.47 27.229 21.357 29.052 21.357 29.052V36.483C21.357 36.483 21.154 38.713 23.317 38.69C25.14 38.668 24.983 36.123 24.983 36.123C24.983 36.123 24.983 35.223 24.96 31.89C24.938 28.557 26.536 27.341 28.833 27.386C30.387 27.409 31.333 27.904 32.279 29.458C32.819 30.336 38.201 38.96 38.696 39.906C39.056 40.536 39.574 41.776 38.021 42.699H38.02ZM31.062 35.019C30.4618 33.9893 29.8464 32.9685 29.216 31.957C29.171 31.89 29.103 31.777 29.013 31.777C28.923 31.777 28.946 31.867 28.923 32.07C28.901 32.498 28.923 34.727 28.923 35.29C28.923 35.425 28.923 35.47 28.991 35.515C29.058 35.583 29.126 35.583 29.239 35.583H30.837C30.995 35.583 31.085 35.628 31.175 35.493C31.288 35.38 31.198 35.29 31.062 35.02V35.019Z" fill="white"/>
</svg>
