<svg width="64" height="64" fill="none" xmlns="http://www.w3.org/2000/svg">
  <circle cx="32" cy="32" r="21" fill="#DB2222"/>
  <circle cx="32" cy="32" r="32" fill="#DB2222" fill-opacity=".3"/>
  <path fill-rule="evenodd" clip-rule="evenodd" d="M31.332 26.643c.473.18 1.329.856 1.914 1.846 4.324 7.161 3.356 5.63 7.116 11.823.316.518 5.405 2.049 5.405 2.049l-.698-1.419-.428-.878c-.563-1.126.067-1.666.72-2.05 0 0-2.477-1.688-2.59-1.778-.112-.09-.202-.203-.337-.338.585-.18 1.441-.518 1.734-.63.27-.136 2.432-1.194 2.432-1.194-1.419-1.058-.428-2.252.203-3.152l1.35-1.892-3.062-.068c-1.509-.157-1.846-.675-1.846-1.666l-3.063 2.184c-1.419.969-2.364 0-2.207-1.734l.496-4.075c-1.441.833-3.693-1.937-4.166-4.594-.63 0-.36 5.044-3.288 4.458.068.09.316 2.613.316 3.108zM38.02 42.699c-1.53.9-2.612-.36-3.22-1.352l-1.486-2.387-4.729-.022s-.968 3.648-5.629 3.648c-4.661-.023-5.494-3.963-5.494-5.832 0-1.87.022-7.747.022-7.747s0-1.801 1.892-1.801c2.094.023 1.981 1.846 1.981 1.846v7.431s-.203 2.23 1.96 2.207c1.823-.022 1.666-2.567 1.666-2.567s0-.9-.023-4.233c-.022-3.333 1.576-4.549 3.873-4.504 1.554.023 2.5.518 3.446 2.072.54.878 5.922 9.502 6.417 10.448.36.63.878 1.87-.675 2.793zm-6.958-7.68a120.783 120.783 0 00-1.846-3.062c-.045-.067-.113-.18-.203-.18-.09 0-.067.09-.09.293-.022.428 0 2.657 0 3.22 0 .135 0 .18.068.225.067.068.135.068.248.068h1.598c.158 0 .248.045.338-.09.113-.113.023-.203-.113-.473z" fill="#fff"/>
</svg>
