<svg width="18" height="19" viewBox="0 0 18 19" fill="none" xmlns="http://www.w3.org/2000/svg">
<path d="M17.568 16.2803L13.5364 12.2486C15.7862 8.84688 14.8503 4.27526 11.4485 2.02545C8.04683 -0.224365 3.47521 0.711557 1.2254 4.11327C-1.02441 7.51499 -0.0884916 12.0866 3.31322 14.3364C5.77902 15.9743 8.98275 15.9743 11.4485 14.3364L15.4802 18.3681C16.0562 18.944 16.9921 18.944 17.568 18.3681C18.144 17.7921 18.144 16.8562 17.568 16.2803ZM7.38089 13.4545C4.46513 13.4545 2.10733 11.0967 2.12532 8.18094C2.12532 5.26518 4.48313 2.90737 7.39888 2.92537C10.3146 2.92537 12.6724 5.28318 12.6544 8.19893C12.6544 9.60282 12.0965 10.9347 11.1066 11.9246C10.1347 12.8965 8.78477 13.4545 7.38089 13.4545Z" fill="black"/>
</svg>
